<svg width="26" height="26" viewBox="0 0 26 26" fill="none" xmlns="http://www.w3.org/2000/svg">
<path d="M12.9966 -2.70617e-08C6.84523 0.00643686 1.53916 4.31874 0.277742 10.3368C-0.983671 16.3548 2.1444 22.4334 7.77586 24.9074C7.72062 23.9061 7.79697 22.9018 8.00297 21.9203L9.67582 14.8359C9.67582 14.8359 9.26038 14.0054 9.26038 12.779C9.26038 10.8522 10.3793 9.41261 11.7697 9.41261C12.9523 9.41261 13.5256 10.3013 13.5256 11.3643C13.5256 12.5548 12.7667 14.3321 12.3762 15.9765C12.0494 17.3552 13.0686 18.4792 14.4285 18.4792C16.8935 18.4792 18.5525 15.3176 18.5525 11.5692C18.5525 8.72051 16.6331 6.58883 13.1406 6.58883C9.19668 6.58883 6.73725 9.52889 6.73725 12.8122C6.73725 13.9445 7.0696 14.7446 7.59306 15.3619C7.83402 15.6471 7.86726 15.7606 7.7814 16.0873C7.72047 16.3281 7.57645 16.9067 7.51551 17.1337C7.42966 17.4632 7.16377 17.5822 6.86742 17.4604C5.04778 16.7185 4.20304 14.7307 4.20304 12.4939C4.20304 8.80079 7.31887 4.37133 13.4979 4.37133C18.4638 4.37133 21.732 7.96473 21.732 11.8184C21.732 16.9178 18.8959 20.7271 14.7138 20.7271C13.3096 20.7271 11.9885 19.9686 11.537 19.1076C11.537 19.1076 10.7809 22.103 10.6203 22.6816C10.3461 23.6838 9.80599 24.686 9.31023 25.4667C13.243 26.6288 17.4938 25.8683 20.7793 23.4148C24.0647 20.9614 25.9997 17.1025 26 13.0032C26.0015 9.55508 24.6321 6.24764 22.1934 3.8089C19.7546 1.37016 16.4463 -3.39893e-07 12.9966 -2.70617e-08Z" fill="white"/>
</svg>
